<?xml version="1.0" standalone="no"?>
<!DOCTYPE svg PUBLIC "-//W3C//DTD SVG 20010904//EN"
 "http://www.w3.org/TR/2001/REC-SVG-20010904/DTD/svg10.dtd">
<svg version="1.0" xmlns="http://www.w3.org/2000/svg"
 width="3811.000000pt" height="3811.000000pt" viewBox="0 0 3811.000000 3811.000000"
 preserveAspectRatio="xMidYMid meet">
<metadata>
Created by potrace 1.11, written by Peter Selinger 2001-2013
</metadata>
<g transform="translate(0.000000,3811.000000) scale(0.100000,-0.100000)"
fill="#000000" stroke="none">
<path d="M9027 30064 c-4 -4 -28 -9 -54 -10 -144 -9 -257 -53 -359 -139 -81
-68 -244 -283 -362 -477 -38 -63 -150 -285 -178 -353 -7 -16 -19 -46 -27 -65
-16 -36 -56 -153 -62 -180 -2 -8 -8 -27 -14 -42 -6 -16 -8 -28 -5 -28 2 0 0
-8 -5 -17 -5 -10 -12 -34 -16 -53 -3 -19 -8 -44 -10 -55 -2 -11 -7 -40 -10
-65 -3 -25 -8 -56 -10 -70 -25 -133 -24 -444 0 -660 2 -19 6 -57 9 -85 3 -27
8 -66 11 -85 2 -19 7 -55 10 -80 6 -51 15 -99 29 -155 12 -49 56 -165 68 -180
4 -5 25 -33 47 -61 67 -88 172 -158 300 -201 41 -14 84 -27 93 -29 10 -2 28
-6 41 -9 53 -12 119 -18 222 -20 61 -2 137 -6 170 -10 33 -3 76 -8 95 -10 152
-17 391 -23 450 -12 113 21 282 96 375 166 28 21 77 71 110 112 32 41 65 79
71 85 8 6 42 9 91 5 43 -3 248 -5 455 -6 328 0 376 -2 376 -15 -1 -8 3 -35 7
-60 15 -96 21 -294 11 -375 -13 -107 -19 -137 -36 -200 -10 -39 -28 -101 -40
-140 -12 -38 -23 -74 -24 -80 -2 -5 -6 -17 -9 -25 -6 -17 -61 -193 -62 -200
-1 -3 -16 -52 -34 -110 -41 -132 -44 -143 -47 -155 -1 -5 -17 -57 -34 -114
-17 -57 -33 -112 -35 -122 -2 -11 -6 -23 -9 -27 -3 -5 -7 -19 -10 -33 -12 -60
-16 -72 -21 -78 -4 -3 -334 -7 -733 -8 -708 -2 -881 -5 -989 -18 -29 -4 -54
-6 -55 -5 -2 1 -16 -3 -31 -9 -15 -6 -41 -13 -56 -16 -73 -13 -285 -116 -361
-175 -66 -51 -138 -136 -227 -269 -95 -142 -227 -399 -249 -485 -3 -14 -10
-24 -14 -21 -4 3 -11 -10 -15 -28 -4 -17 -9 -36 -11 -42 -2 -5 -6 -23 -9 -40
-3 -16 -10 -43 -15 -60 -5 -16 -11 -41 -14 -55 -8 -41 -15 -71 -20 -88 -3 -9
-8 -35 -12 -57 -3 -22 -8 -43 -10 -46 -2 -4 -6 -24 -10 -45 -3 -22 -9 -55 -14
-74 -5 -19 -12 -51 -15 -70 -3 -19 -8 -42 -10 -50 -5 -17 -13 -60 -21 -110 -3
-19 -7 -42 -9 -50 -2 -8 -6 -28 -9 -45 -7 -41 -15 -85 -21 -115 -2 -13 -7 -40
-10 -60 -3 -20 -7 -47 -10 -60 -3 -13 -7 -40 -10 -60 -3 -20 -7 -47 -10 -60
-3 -14 -7 -43 -10 -65 -3 -22 -7 -49 -9 -60 -2 -11 -7 -40 -10 -65 -3 -25 -8
-56 -11 -69 -2 -13 -7 -49 -11 -80 -3 -31 -8 -65 -10 -76 -6 -34 -14 -91 -19
-135 -5 -43 -13 -104 -20 -150 -3 -14 -7 -47 -10 -75 -3 -27 -7 -66 -10 -85
-10 -84 -18 -147 -20 -170 -2 -14 -6 -54 -11 -90 -4 -36 -8 -75 -8 -87 0 -22
-3 -23 -105 -24 -172 -2 -220 -4 -541 -24 -30 -2 -86 -6 -125 -10 -38 -3 -97
-8 -130 -11 -33 -3 -73 -7 -90 -9 -16 -2 -61 -6 -100 -10 -38 -3 -81 -8 -95
-10 -14 -2 -47 -7 -75 -10 -27 -4 -62 -8 -77 -11 -60 -9 -139 -20 -208 -29
-14 -2 -40 -6 -57 -9 -32 -6 -67 -12 -125 -21 -55 -9 -83 -15 -158 -30 -14 -2
-41 -7 -60 -10 -19 -3 -51 -10 -70 -15 -19 -5 -51 -12 -70 -15 -19 -3 -72 -15
-117 -25 -46 -11 -94 -22 -108 -25 -14 -3 -36 -7 -50 -10 -13 -3 -36 -10 -50
-15 -14 -5 -25 -7 -25 -5 0 2 -11 0 -25 -5 -14 -5 -36 -12 -48 -14 -36 -7
-177 -45 -185 -50 -5 -3 -19 -7 -33 -10 -21 -4 -51 -11 -84 -20 -34 -8 -360
-112 -385 -123 -8 -3 -19 -7 -25 -9 -10 -2 -139 -50 -165 -61 -8 -3 -17 -7
-20 -7 -7 -2 -58 -22 -170 -68 -364 -151 -849 -418 -1055 -581 -5 -4 -35 -26
-65 -47 -134 -97 -243 -192 -474 -410 -109 -103 -363 -359 -409 -412 -129
-148 -243 -287 -298 -358 -35 -47 -68 -89 -72 -95 -22 -26 -198 -285 -251
-367 -59 -92 -349 -584 -368 -623 -5 -11 -27 -51 -48 -90 -22 -38 -75 -142
-119 -230 -75 -152 -94 -193 -142 -302 -11 -27 -26 -61 -34 -78 -55 -125 -216
-568 -230 -634 -2 -9 -13 -45 -24 -80 -12 -36 -24 -78 -27 -95 -3 -16 -7 -33
-10 -37 -8 -13 -50 -183 -69 -274 -2 -11 -6 -30 -9 -42 -9 -35 -16 -66 -21
-93 -3 -14 -7 -36 -10 -50 -3 -14 -7 -36 -10 -50 -3 -14 -7 -36 -10 -50 -2
-13 -7 -40 -10 -60 -3 -20 -7 -45 -9 -55 -7 -38 -21 -131 -31 -205 -3 -25 -8
-63 -11 -85 -4 -22 -7 -56 -9 -75 -2 -19 -6 -62 -9 -95 -6 -64 -12 -134 -21
-255 -3 -41 -8 -100 -10 -130 -15 -204 -20 -381 -20 -790 0 -401 5 -567 20
-730 1 -19 6 -69 9 -110 8 -83 12 -120 21 -195 3 -27 8 -69 11 -91 3 -23 7
-53 9 -65 3 -13 8 -44 11 -69 3 -25 8 -54 10 -65 5 -22 11 -59 20 -107 3 -18
9 -51 14 -73 5 -22 11 -53 14 -70 19 -102 96 -425 131 -545 2 -8 13 -48 24
-88 11 -40 22 -76 25 -81 3 -4 7 -18 10 -32 3 -13 16 -62 31 -109 14 -47 27
-92 30 -100 15 -58 139 -442 179 -555 2 -5 4 -13 5 -18 0 -4 8 -21 17 -38 8
-17 17 -38 19 -47 15 -74 232 -549 323 -707 284 -494 623 -860 1072 -1159 228
-152 329 -210 575 -330 162 -79 276 -131 433 -197 12 -5 32 -13 45 -19 46 -20
207 -83 347 -136 80 -31 154 -59 165 -64 11 -4 47 -18 80 -30 33 -12 69 -26
80 -30 55 -24 486 -175 525 -185 8 -2 39 -13 68 -24 29 -11 56 -20 60 -20 4
-1 34 -10 68 -21 33 -11 69 -23 80 -25 10 -3 64 -18 119 -36 55 -17 111 -33
124 -35 13 -3 32 -9 43 -15 10 -5 18 -7 18 -4 0 3 8 1 18 -4 11 -6 30 -12 43
-14 13 -3 44 -11 69 -18 25 -7 50 -13 55 -15 6 -1 53 -14 105 -28 53 -13 107
-27 120 -30 14 -3 62 -14 107 -25 45 -11 92 -22 105 -25 13 -3 34 -8 48 -11
14 -3 41 -8 60 -11 19 -3 38 -8 41 -10 3 -2 19 -6 35 -8 16 -3 40 -8 54 -11
14 -3 41 -8 60 -11 19 -3 42 -7 50 -9 8 -2 29 -6 45 -9 41 -7 85 -15 115 -21
13 -2 42 -7 65 -10 22 -4 54 -8 70 -11 34 -6 82 -13 135 -19 19 -2 45 -6 57
-9 12 -3 50 -7 85 -11 35 -3 82 -8 105 -10 130 -15 228 -23 353 -30 58 -4 128
-8 155 -10 302 -21 1523 -28 1945 -11 118 4 247 9 285 11 129 5 379 18 590 30
66 4 143 8 170 10 28 2 95 6 150 9 55 4 132 9 170 11 39 3 104 7 145 10 41 3
104 8 140 10 209 14 312 22 401 30 31 3 82 7 115 10 32 2 86 7 119 9 33 3 92
8 130 11 39 3 90 8 115 10 25 2 74 7 110 10 36 3 83 7 105 9 22 2 74 7 115 11
41 4 93 8 115 11 22 2 65 6 95 9 30 3 75 7 100 10 48 5 125 13 200 20 25 2 61
6 80 9 19 2 71 7 115 11 44 4 88 9 97 10 9 2 48 7 85 10 37 4 84 9 103 11 19
2 51 6 70 9 19 2 60 6 90 10 30 3 73 8 95 11 22 2 58 7 80 9 22 3 58 7 80 9
22 3 65 7 95 11 30 3 66 8 80 10 14 2 50 7 80 10 30 3 73 8 95 10 22 3 56 8
75 10 73 9 136 17 160 20 14 1 43 5 65 9 22 3 63 8 90 11 28 3 61 8 75 10 14
2 50 6 80 10 30 3 66 8 80 10 14 2 49 7 79 10 30 4 63 9 75 11 12 2 44 6 71 9
28 4 61 8 75 10 133 19 160 23 208 29 142 19 127 17 222 31 51 7 93 14 130 20
14 2 46 6 72 9 54 7 120 16 203 30 17 3 50 7 75 10 25 3 54 8 65 10 11 2 43 7
70 11 28 4 59 8 70 10 11 2 43 6 70 10 28 3 57 8 66 11 9 2 36 7 60 9 24 3 55
7 69 10 14 3 43 8 65 10 22 3 51 7 65 10 14 3 45 8 70 11 25 3 52 7 60 9 8 3
35 7 60 10 25 3 56 7 70 10 33 6 79 14 121 19 19 3 43 7 54 10 11 2 40 7 65
10 25 3 56 8 70 11 13 2 42 7 65 10 43 7 71 11 123 20 17 3 47 7 65 10 41 7
84 15 120 20 15 3 39 7 55 10 15 2 41 6 57 9 17 3 44 7 60 10 17 3 45 8 63 11
17 3 47 7 65 10 17 3 43 7 57 10 14 3 41 7 60 10 19 3 60 10 90 15 30 5 70 12
88 15 36 6 72 12 120 20 17 3 47 7 65 10 17 3 43 7 57 10 14 3 41 7 60 10 19
3 42 8 50 10 8 2 33 7 55 10 23 3 52 8 65 10 14 3 39 7 55 10 17 2 40 6 51 9
22 5 68 12 132 22 20 3 44 7 52 9 8 2 29 6 45 9 17 3 44 7 60 10 17 3 46 8 65
11 19 3 42 8 50 10 8 2 33 7 55 10 23 3 52 8 65 10 14 3 40 8 59 11 18 3 43 8
55 10 11 2 46 8 76 14 30 5 69 12 85 15 17 3 45 8 64 11 18 3 43 8 55 10 11 2
36 7 55 10 18 3 43 8 55 10 11 2 36 7 55 10 18 3 43 8 55 10 11 2 36 7 55 10
18 3 43 8 55 10 11 3 32 7 46 9 29 4 74 13 110 20 28 6 60 12 110 20 19 3 42
8 50 10 8 2 31 6 50 9 19 3 46 8 60 11 14 3 39 7 55 10 17 3 41 8 55 10 14 3
36 8 50 10 14 3 40 8 59 11 18 3 43 8 55 10 11 3 30 7 41 8 25 4 157 29 215
41 14 3 50 9 80 15 30 6 66 12 80 15 14 3 36 7 50 10 14 3 36 7 50 10 13 2 42
7 64 11 22 3 43 7 46 9 3 2 21 6 40 9 19 3 46 8 60 11 14 3 36 7 50 10 14 3
35 7 46 9 12 2 37 7 55 10 19 3 45 8 59 11 14 3 36 8 50 10 14 2 70 13 126 24
119 25 125 27 234 47 47 9 94 18 105 20 11 2 31 6 45 9 38 7 70 14 125 25 72
15 96 20 130 25 17 3 37 8 45 10 8 2 29 7 45 10 34 6 69 12 105 20 26 6 57 12
100 20 14 3 36 7 50 10 14 3 38 8 54 11 16 2 32 6 35 8 3 2 23 7 43 10 21 3
57 10 80 15 24 6 59 13 78 16 19 3 42 8 50 10 8 2 29 7 45 10 17 2 41 7 55 10
14 3 40 8 59 11 19 2 37 7 41 9 4 3 25 7 46 10 22 4 47 8 56 11 10 3 30 7 45
10 16 2 39 7 53 10 29 7 55 12 90 19 14 3 36 7 50 10 14 3 36 8 50 11 14 2 39
7 55 11 17 4 32 7 35 8 3 0 21 4 40 8 19 4 46 10 60 13 14 3 39 7 55 10 17 3
46 9 65 14 19 5 49 12 65 14 17 3 41 8 55 11 14 3 36 8 50 11 14 2 45 9 70 14
25 6 55 12 68 15 13 2 31 6 40 9 9 3 33 8 52 11 19 3 42 8 50 10 8 2 26 6 40
9 14 3 36 7 49 10 14 3 70 15 125 27 56 11 110 23 121 25 11 2 36 7 55 10 19
3 38 8 41 10 3 2 21 6 40 9 19 3 50 10 69 15 35 9 60 14 115 25 17 3 53 11 80
17 28 7 53 11 57 10 4 -1 18 2 31 7 13 5 39 12 58 15 46 8 77 14 97 20 9 3 32
8 50 11 19 3 71 14 115 24 45 11 96 22 112 25 42 7 173 35 215 46 19 5 47 12
63 15 38 7 200 42 282 61 11 2 32 6 47 9 16 3 58 12 95 21 38 9 79 18 93 20
14 3 43 10 65 16 22 5 51 12 65 14 20 4 176 38 275 60 34 8 59 14 83 18 13 3
31 7 40 10 16 5 42 10 100 21 15 3 38 8 52 12 14 3 31 7 39 9 7 1 34 8 60 14
25 6 57 13 71 16 27 5 50 10 90 19 14 4 36 8 50 11 14 3 41 9 60 14 19 5 49
12 65 14 17 3 41 8 55 11 14 3 36 8 49 11 12 3 51 11 85 19 33 8 75 16 91 19
75 14 93 18 145 31 48 11 111 24 132 26 4 0 22 4 39 9 18 5 50 12 73 16 22 3
43 7 46 9 3 2 26 6 50 10 25 3 52 8 60 10 8 2 29 6 45 9 17 3 46 8 65 11 19 4
47 9 62 11 58 9 84 13 108 19 35 7 81 16 105 20 32 5 87 15 135 26 25 6 54 13
65 15 38 8 60 12 110 24 28 7 64 14 80 16 17 3 41 9 55 14 14 5 41 12 60 15
19 4 76 18 125 31 188 50 351 95 365 101 8 3 23 8 33 10 26 5 406 131 442 147
17 7 44 18 60 24 17 5 39 14 50 18 11 4 22 8 25 9 3 1 19 8 35 15 17 7 32 14
35 15 3 1 18 7 33 13 16 7 30 12 32 12 5 0 149 66 250 116 165 80 426 229 433
246 2 4 8 8 14 8 12 0 207 134 298 204 l64 50 141 2 c149 2 279 12 373 28 17
3 47 8 65 12 140 23 315 112 377 191 28 36 29 34 44 -67 14 -92 18 -117 22
-140 2 -14 6 -41 9 -60 3 -19 7 -46 10 -60 2 -13 7 -42 11 -64 3 -22 7 -43 9
-46 2 -3 6 -30 10 -60 4 -30 9 -58 12 -63 2 -4 6 -17 9 -30 2 -12 6 -33 9 -47
14 -69 19 -95 20 -100 1 -3 5 -23 9 -45 4 -22 14 -61 21 -87 8 -27 12 -48 10
-48 -3 0 0 -11 5 -26 6 -14 12 -37 15 -52 3 -15 30 -126 60 -247 31 -121 58
-227 60 -235 2 -8 11 -42 20 -75 9 -33 18 -67 20 -75 2 -8 11 -40 20 -70 9
-30 17 -62 19 -71 3 -8 12 -40 21 -70 9 -30 19 -65 21 -79 9 -47 48 -145 91
-230 89 -179 209 -294 598 -578 95 -69 187 -132 194 -132 5 0 11 -4 13 -9 6
-17 277 -188 370 -234 275 -136 587 -201 968 -202 149 0 206 4 279 19 179 38
342 140 445 277 39 52 95 145 101 169 1 3 4 12 8 20 14 36 47 140 52 164 3 14
7 36 10 49 24 109 29 162 29 292 0 115 -7 203 -18 235 -3 8 -7 31 -10 50 -9
60 -43 170 -106 340 -92 250 -136 360 -178 450 -9 19 -17 41 -18 48 -1 7 -9
24 -18 37 -9 13 -16 28 -16 34 0 15 -258 550 -319 661 -4 8 -12 24 -18 35 -14
29 -66 122 -144 261 -38 67 -69 127 -69 133 0 6 -4 11 -9 11 -5 0 -11 8 -14
18 -4 9 -18 37 -33 62 -15 25 -35 59 -44 75 -9 17 -40 69 -69 117 -28 48 -51
91 -51 97 0 5 -4 11 -8 13 -4 2 -19 23 -33 48 -14 25 -51 89 -83 143 -31 53
-59 104 -62 111 -4 10 22 4 83 -20 87 -35 274 -102 303 -109 8 -2 42 -13 75
-23 70 -24 226 -71 252 -77 10 -2 52 -13 93 -24 41 -11 86 -22 100 -25 44 -9
71 -15 88 -20 9 -3 31 -8 47 -11 17 -2 41 -7 55 -10 14 -3 36 -7 50 -10 14 -3
36 -7 49 -10 23 -4 86 -12 161 -20 215 -23 617 -23 795 0 17 2 55 7 85 10 30
3 67 8 83 11 76 12 98 16 167 29 103 20 112 22 183 40 34 9 69 18 78 20 100
21 289 111 378 179 58 45 131 126 131 145 0 6 4 11 8 11 5 0 19 24 31 53 25
55 71 197 65 197 -2 0 1 11 6 26 6 14 12 44 15 67 3 23 8 62 11 87 4 25 8 142
9 260 1 118 5 225 8 236 3 12 8 37 11 55 3 19 10 49 15 67 5 18 10 35 10 37
-1 9 12 66 37 165 9 36 17 70 18 75 1 6 5 16 9 23 5 6 6 12 3 12 -3 0 -1 11 4
25 5 14 12 36 14 48 3 12 14 58 26 102 12 44 24 90 26 102 2 12 9 34 14 48 5
14 7 25 5 25 -2 0 0 11 5 25 5 14 12 36 14 48 2 12 10 45 16 72 6 28 13 57 15
65 1 8 8 33 13 55 6 22 13 52 16 68 3 15 7 35 10 45 3 9 7 34 10 54 3 21 10
57 15 80 6 24 12 55 15 71 3 15 10 55 17 90 6 34 13 71 14 82 2 11 6 35 9 53
6 30 10 55 21 120 2 15 7 50 11 77 3 28 8 59 10 70 19 102 27 523 12 650 -15
126 -19 148 -33 215 -3 14 -7 34 -9 45 -15 73 -87 261 -105 275 -4 3 -11 15
-16 27 -6 12 -37 56 -70 98 -125 160 -311 274 -600 370 -48 16 -60 19 -105 29
-11 3 -23 7 -28 9 -4 3 -32 8 -62 12 -30 4 -58 9 -61 11 -14 8 -193 18 -334
18 -133 -1 -352 -8 -515 -19 -30 -2 -98 -6 -150 -9 -148 -9 -281 -17 -330 -21
-157 -14 -244 -15 -225 -4 11 7 22 15 25 19 3 3 32 26 65 51 33 24 62 47 65
51 3 3 22 20 42 36 125 99 387 354 551 537 49 55 104 116 122 135 17 19 123
143 235 275 113 132 250 293 307 357 56 64 115 136 130 160 15 24 30 45 34 48
12 10 77 136 88 171 20 63 23 82 27 157 4 108 -24 180 -110 281 -58 68 -248
240 -406 365 -25 20 -52 42 -60 49 -8 6 -48 38 -90 69 -41 32 -79 61 -85 65
-5 5 -26 19 -45 33 -19 13 -37 27 -40 30 -7 7 -42 29 -60 37 -8 4 -17 10 -20
14 -24 33 -410 240 -505 269 -22 7 -49 16 -60 21 -19 7 -53 16 -100 25 -11 2
-31 6 -45 9 -106 23 -396 23 -530 1 -14 -3 -41 -7 -60 -10 -57 -9 -93 -16
-120 -22 -14 -3 -32 -7 -40 -9 -84 -19 -158 -37 -225 -55 -44 -11 -89 -22
-100 -24 -11 -2 -21 -5 -22 -6 -2 -1 -6 -3 -10 -4 -41 -11 -106 -30 -143 -43
-25 -8 -56 -17 -69 -19 -14 -3 -29 -8 -35 -12 -6 -3 -15 -7 -21 -8 -5 -1 -73
-23 -150 -49 -145 -49 -318 -126 -370 -166 -53 -41 -165 -159 -165 -174 0 -8
-4 -15 -8 -15 -13 0 -93 -183 -107 -245 -1 -5 -5 -17 -8 -25 -3 -8 -15 -44
-26 -80 -11 -36 -38 -117 -61 -180 -23 -63 -43 -119 -44 -125 -2 -5 -8 -23
-15 -40 -15 -38 -41 -108 -81 -215 -18 -47 -36 -94 -41 -105 -26 -62 -59 -150
-59 -159 0 -6 -6 -23 -14 -37 -12 -23 -49 -123 -51 -139 0 -3 -9 -27 -19 -55
-27 -75 -29 -79 -32 -90 -1 -5 -16 -50 -32 -100 -29 -86 -60 -193 -67 -225 -2
-8 -8 -28 -15 -45 -6 -16 -11 -31 -10 -33 2 -3 -11 -65 -31 -142 -6 -25 -13
-54 -14 -65 -2 -11 -11 -49 -20 -85 -9 -36 -18 -72 -20 -80 -2 -8 -10 -42 -18
-75 -9 -33 -18 -71 -21 -85 -3 -14 -10 -43 -15 -65 -5 -22 -12 -51 -15 -65 -3
-14 -7 -35 -10 -47 -4 -13 -8 -31 -10 -40 -24 -95 -66 -273 -70 -293 -3 -14
-7 -35 -10 -47 -14 -55 -37 -152 -41 -176 -2 -10 -6 -26 -9 -35 -3 -9 -8 -31
-11 -49 -3 -18 -9 -42 -14 -55 -5 -13 -9 -26 -9 -31 0 -7 -6 -32 -18 -87 -3
-14 -7 -35 -9 -47 -2 -11 -6 -30 -9 -41 -4 -11 -9 -29 -11 -39 -2 -10 -16 -70
-30 -133 -30 -129 -33 -141 -35 -155 -1 -10 -29 57 -35 86 -2 8 -10 32 -19 52
-8 21 -15 39 -16 42 -5 38 -98 259 -181 431 -131 272 -366 623 -549 815 -27
29 -50 56 -50 61 0 4 -3 8 -7 8 -5 0 -24 16 -43 35 -98 97 -266 232 -386 308
-103 67 -310 166 -399 191 -5 2 -17 6 -25 9 -28 10 -185 59 -203 63 -16 3 -36
9 -117 35 -14 4 -59 18 -100 30 -41 13 -77 23 -80 24 -3 1 -12 5 -20 8 -15 7
-317 107 -335 112 -5 1 -17 5 -25 9 -8 3 -44 15 -80 25 -36 11 -132 40 -215
66 -82 26 -158 48 -168 50 -9 2 -21 6 -25 9 -5 3 -19 7 -33 10 -13 2 -69 18
-124 34 -93 28 -145 41 -162 43 -5 1 -15 5 -24 9 -13 7 -278 79 -354 97 -38 8
-50 11 -50 13 0 2 -20 7 -75 20 -48 11 -54 13 -85 23 -11 3 -31 9 -45 11 -25
5 -176 42 -215 52 -11 3 -31 7 -45 10 -14 3 -43 10 -65 16 -22 5 -47 12 -55
13 -8 2 -67 16 -130 30 -63 15 -123 28 -133 30 -10 2 -26 6 -35 9 -9 3 -30 8
-47 11 -16 3 -34 7 -40 9 -5 2 -29 7 -52 11 -24 4 -43 9 -43 10 0 2 14 35 30
74 40 94 53 124 56 136 1 6 12 35 24 65 12 30 25 66 30 80 4 14 15 42 24 62 9
21 16 39 15 40 0 3 7 25 31 88 10 25 19 48 20 52 1 4 4 17 7 28 5 20 10 21
112 15 119 -6 225 -12 381 -21 58 -3 134 -7 170 -9 36 -2 110 -6 165 -9 55 -4
129 -8 165 -11 67 -5 200 -14 280 -20 112 -7 250 -16 300 -20 30 -2 93 -7 140
-10 47 -3 110 -8 140 -10 30 -2 102 -7 160 -10 208 -12 362 -23 555 -41 143
-12 172 -16 209 -24 32 -7 44 -5 72 13 40 26 64 71 64 119 -1 95 -114 236
-335 413 -38 31 -77 62 -86 69 -69 56 -227 166 -238 166 -5 0 -11 4 -13 8 -3
9 -131 92 -141 92 -3 0 -23 12 -44 26 -21 14 -54 33 -73 42 -19 9 -38 20 -41
25 -3 5 -9 9 -12 8 -26 -1 -305 139 -433 217 -28 18 -56 32 -62 32 -6 0 -12 3
-14 8 -1 4 -28 23 -58 42 -50 32 -191 128 -215 148 -5 4 -37 28 -70 52 -33 25
-69 52 -80 61 -71 58 -175 148 -206 177 l-37 34 92 132 c50 72 105 151 121
176 17 24 36 51 43 60 6 8 50 69 97 135 177 251 338 452 399 498 17 13 81 49
143 79 61 31 139 77 173 104 110 86 207 230 234 346 12 53 13 172 2 216 -3 12
-8 32 -11 45 -13 61 -73 165 -122 211 -63 61 -121 90 -217 113 -12 2 -118 6
-236 8 -186 3 -375 10 -500 20 -131 9 -218 17 -244 21 -17 2 -116 6 -221 9
-772 18 -754 17 -1390 42 -365 14 -773 10 -1080 -11 -22 -2 -92 -7 -155 -11
-63 -4 -133 -9 -155 -11 -260 -18 -562 -22 -755 -9 -193 12 -342 8 -374 -13
-6 -3 -19 -8 -29 -9 -10 -2 -28 -8 -40 -15 -12 -7 -27 -13 -33 -14 -53 -9
-202 -149 -274 -257 l-44 -67 -86 5 c-47 3 -105 8 -130 10 -25 2 -79 7 -120
10 -109 9 -267 23 -345 31 -22 2 -62 6 -90 9 -27 3 -66 7 -85 10 -19 3 -60 8
-90 11 -30 3 -68 8 -85 10 -16 2 -59 6 -95 9 -105 9 -264 30 -300 40 -8 2 -35
6 -60 9 -25 3 -54 8 -66 10 -12 2 -45 7 -74 11 -29 4 -61 8 -71 10 -56 11
-180 19 -291 20 -113 0 -129 -2 -155 -21 -50 -37 -43 -51 84 -181 65 -66 138
-135 163 -152 24 -18 92 -76 150 -130 325 -302 490 -445 865 -751 77 -63 142
-117 145 -120 6 -6 185 -147 333 -263 54 -42 103 -77 108 -79 6 -2 10 -12 11
-23 1 -22 -11 -188 -17 -245 -3 -31 -15 -143 -20 -195 -2 -26 -16 -124 -21
-150 -6 -27 -13 -68 -19 -107 -3 -18 -10 -46 -15 -63 -5 -16 -12 -41 -14 -55
-3 -14 -15 -61 -27 -105 -11 -44 -23 -88 -25 -98 -2 -10 -6 -27 -9 -37 -6 -19
-12 -44 -21 -95 -12 -69 -16 -92 -20 -120 -2 -16 -6 -41 -9 -55 -3 -14 -7 -42
-10 -64 -3 -21 -8 -52 -11 -70 -6 -33 -8 -52 -20 -156 -11 -104 -12 -113 -13
-152 -1 -40 8 -38 -93 -23 -18 2 -55 7 -83 11 -27 3 -59 7 -70 9 -11 1 -42 6
-70 9 -27 4 -68 10 -90 13 -22 3 -51 6 -65 8 -47 5 -125 15 -150 20 -25 6 -45
8 -151 19 -31 4 -66 8 -78 11 -13 2 -49 7 -80 11 -31 3 -64 8 -75 10 -10 2
-44 6 -75 10 -31 3 -64 8 -75 10 -10 2 -44 6 -75 10 -31 3 -63 8 -72 9 -9 2
-40 6 -70 10 -30 3 -67 9 -84 11 -16 3 -46 7 -65 9 -19 2 -48 6 -65 9 -16 3
-50 8 -75 10 -25 3 -61 8 -81 11 -20 3 -51 7 -70 10 -19 2 -56 6 -84 10 -27 4
-61 8 -75 10 -14 2 -38 5 -55 8 -29 6 -113 17 -165 22 -14 2 -44 6 -66 9 -49
8 -106 15 -154 21 -48 5 -110 14 -140 19 -14 3 -47 7 -75 11 -27 3 -63 8 -80
10 -16 2 -50 7 -75 10 -66 8 -93 14 -101 22 -4 5 -10 42 -14 83 -8 84 -11 111
-19 155 -3 17 -8 50 -11 75 -6 41 -41 222 -51 263 -2 9 -6 25 -8 35 -21 92
-48 197 -56 217 -5 14 -12 36 -14 48 -4 25 -108 336 -127 382 -6 17 -13 35
-14 41 -3 10 -49 121 -80 189 -17 37 -38 88 -39 95 -6 25 -140 273 -200 369
-42 67 -76 126 -76 131 0 6 -3 10 -7 10 -5 0 -26 28 -48 63 -22 34 -45 69 -52
77 -6 8 -42 56 -79 105 -377 507 -905 973 -1509 1332 -278 165 -602 327 -840
420 -49 19 -104 41 -122 49 -17 8 -36 14 -42 14 -6 0 -19 4 -29 10 -18 10
-284 99 -315 105 -9 2 -21 6 -25 9 -5 3 -19 7 -33 10 -13 3 -71 19 -129 36
-58 16 -114 32 -125 34 -11 2 -56 14 -101 25 -45 12 -91 24 -103 26 -13 2 -30
6 -39 9 -9 3 -29 7 -45 10 -15 3 -35 7 -45 10 -9 3 -29 8 -44 11 -27 5 -43 8
-98 20 -14 3 -56 12 -95 20 -109 22 -118 24 -145 30 -14 3 -43 7 -65 10 -22 3
-51 7 -65 10 -14 3 -43 7 -65 10 -22 3 -56 7 -76 10 -20 3 -54 7 -75 10 -21 2
-59 7 -84 10 -45 5 -76 9 -180 20 -80 9 -140 16 -180 20 -19 2 -68 7 -109 10
-41 4 -82 8 -91 10 -9 2 -52 6 -96 10 -43 4 -95 8 -114 10 -19 2 -68 7 -109
10 -41 4 -89 8 -105 10 -17 3 -67 7 -111 10 -44 4 -96 8 -115 10 -19 2 -69 7
-110 10 -41 4 -88 8 -105 10 -16 1 -64 6 -105 9 -41 4 -95 9 -120 11 -25 3
-74 7 -110 10 -36 3 -87 8 -115 11 -27 2 -72 6 -100 9 -27 2 -75 7 -105 9 -61
6 -145 14 -235 21 -33 3 -78 7 -100 10 -22 2 -76 7 -120 10 -44 4 -81 8 -83
10 -2 2 2 23 9 46 6 24 12 49 13 54 8 37 50 156 86 240 38 91 50 123 67 189 3
11 7 75 9 141 2 92 -2 137 -17 195 -29 112 -33 145 -33 255 0 144 12 217 63
372 69 210 180 376 341 508 23 19 112 116 135 146 14 19 55 83 93 144 50 81
128 259 121 277 0 2 5 17 11 33 38 97 45 313 15 445 -3 14 -8 35 -11 48 -23
112 -113 286 -196 379 -167 185 -376 298 -654 353 -80 16 -128 19 -249 15 -82
-2 -168 -6 -190 -9 -259 -38 -792 -43 -1060 -11 -16 2 -55 7 -85 10 -30 3 -66
8 -80 10 -41 6 -114 17 -135 20 -11 2 -36 6 -55 10 -19 3 -46 8 -60 10 -14 2
-43 7 -65 11 -43 7 -73 12 -91 13 -10 1 -17 20 -31 94 -1 10 -17 53 -33 96
-67 172 -180 300 -335 376 -83 40 -192 76 -272 90 -18 3 -46 7 -61 10 -16 3
-44 7 -63 9 -19 3 -47 7 -64 10 -33 5 -102 14 -180 22 -27 3 -70 7 -95 10 -89
10 -395 16 -403 8z"/>
</g>
</svg>
